<svg width="19" height="21" viewBox="0 0 19 21" fill="none" xmlns="http://www.w3.org/2000/svg">
<path d="M18.1805 20.1228L16.9027 5.89192C16.8678 5.50329 16.5421 5.2056 16.1519 5.2056H13.5167V4.01709C13.5167 1.80207 11.7147 0 9.49981 0C7.28499 0 5.48323 1.80207 5.48323 4.01709V5.2056H2.8462C2.45606 5.2056 2.13034 5.50329 2.09547 5.89192L0.812584 20.1788C0.79369 20.3897 0.864241 20.5986 1.00705 20.7548C1.14986 20.911 1.35177 20.9999 1.56332 20.9999H17.4349C17.4355 20.9999 17.4363 20.9999 17.4369 20.9999C17.8533 20.9999 18.1907 20.6624 18.1907 20.2461C18.1906 20.2042 18.1871 20.1629 18.1805 20.1228ZM6.99073 4.01709C6.99073 2.6333 8.11633 1.5075 9.49991 1.5075C10.8836 1.5075 12.0093 2.6333 12.0093 4.01709V5.2056H6.99073V4.01709ZM2.38782 19.4925L3.53533 6.71311H5.48323V8.06101C5.48323 8.47728 5.8206 8.81476 6.23698 8.81476C6.65335 8.81476 6.99073 8.47728 6.99073 8.06101V6.71311H12.0093V8.06101C12.0093 8.47728 12.3467 8.81476 12.7631 8.81476C13.1794 8.81476 13.5168 8.47728 13.5168 8.06101V6.71311H15.4629L16.6104 19.4925H2.38782Z" fill="white"/>
</svg>
