<svg width="35" height="28" viewBox="0 0 35 28" fill="none" xmlns="http://www.w3.org/2000/svg">
<path d="M33.0645 14.4464H30.1222V6.43912C30.1222 5.37365 29.2616 4.50688 28.2038 4.50688H23.7761V2.58717C23.7761 1.5542 22.9417 0.713867 21.9162 0.713867H1.85992C0.834395 0.713867 0 1.5542 0 2.58717V3.41318C0 3.69843 0.229551 3.92956 0.512695 3.92956C0.79584 3.92956 1.02539 3.69843 1.02539 3.41318V2.58717C1.02539 2.12373 1.39979 1.74663 1.85992 1.74663H21.9161C22.3762 1.74663 22.7506 2.12373 22.7506 2.58717V18.8507H1.02539V5.83433C1.02539 5.54908 0.79584 5.31795 0.512695 5.31795C0.229551 5.31795 0 5.54908 0 5.83433V23.3384C0 24.3713 0.834395 25.2117 1.85992 25.2117H3.03816C3.29595 26.6272 4.52983 27.7033 6.00865 27.7033C7.48747 27.7033 8.72136 26.6272 8.97914 25.2117H17.1349C17.418 25.2117 17.6476 24.9805 17.6476 24.6953C17.6476 24.41 17.418 24.1789 17.1349 24.1789H8.99056C8.76025 22.7303 7.51078 21.6199 6.00858 21.6199C4.50639 21.6199 3.25698 22.7303 3.02668 24.179H1.85992C1.39979 24.179 1.02539 23.8019 1.02539 23.3384V19.8835H22.7506V24.179H19.4865C19.2034 24.179 18.9738 24.4101 18.9738 24.6953C18.9738 24.9806 19.2034 25.2117 19.4865 25.2117H26.1356C26.3933 26.6273 27.6272 27.7034 29.106 27.7034C30.5847 27.7034 31.8187 26.6273 32.0765 25.2117H33.0815C34.1394 25.2117 34.9999 24.3449 34.9999 23.2795V16.3959C35 15.3209 34.1318 14.4464 33.0645 14.4464ZM6.00858 22.6527C7.10842 22.6527 8.00317 23.5539 8.00317 24.6617C8.00317 25.7694 7.10842 26.6707 6.00858 26.6707C4.90875 26.6707 4.01399 25.7694 4.01399 24.6617C4.01399 23.5539 4.90882 22.6527 6.00858 22.6527ZM29.1061 26.6706C28.0062 26.6706 27.1115 25.7694 27.1115 24.6616C27.1115 23.5539 28.0062 22.6527 29.1061 22.6527C30.2059 22.6527 31.1006 23.5539 31.1006 24.6616C31.1006 25.7694 30.2059 26.6706 29.1061 26.6706ZM33.9746 19.1957H32.6102C32.3276 19.1957 32.0975 18.964 32.0975 18.6793C32.0975 18.3945 32.3275 18.1629 32.6102 18.1629H33.9746V19.1957ZM33.9746 17.1301H32.6102C31.7622 17.1301 31.0721 17.8251 31.0721 18.6793C31.0721 19.5334 31.7621 20.2284 32.6102 20.2284H33.9746V23.2794C33.9746 23.7754 33.574 24.1789 33.0816 24.1789H32.088C31.8577 22.7303 30.6083 21.6199 29.1061 21.6199C27.6039 21.6199 26.3545 22.7303 26.1241 24.1789H23.776V5.53965H28.2037C28.6962 5.53965 29.0968 5.94311 29.0968 6.43912V6.5594H25.6642C25.3811 6.5594 25.1515 6.79053 25.1515 7.07578V14.9628C25.1515 15.2481 25.3811 15.4792 25.6642 15.4792H33.0645C33.5663 15.4792 33.9745 15.8905 33.9745 16.3958V17.1301H33.9746ZM29.0968 7.59217V14.4464H26.177V7.59217H29.0968Z" fill="#333333"/>
<path d="M26.8494 17.1301H25.6641C25.3809 17.1301 25.1514 17.3613 25.1514 17.6465C25.1514 17.9318 25.3809 18.1629 25.6641 18.1629H26.8494C27.1326 18.1629 27.3621 17.9318 27.3621 17.6465C27.3621 17.3613 27.1326 17.1301 26.8494 17.1301Z" fill="#333333"/>
<path d="M14.8953 9.14416C15.1784 9.14416 15.4079 8.91302 15.4079 8.62777C15.4079 8.34252 15.1784 8.11139 14.8953 8.11139H12.8457C12.5626 8.11139 12.333 8.34252 12.333 8.62777V12.7577C12.333 13.0429 12.5626 13.2741 12.8457 13.2741H14.8953C15.1784 13.2741 15.4079 13.0429 15.4079 12.7577C15.4079 12.4724 15.1784 12.2413 14.8953 12.2413H13.3584V11.2091H14.8953C15.1784 11.2091 15.4079 10.978 15.4079 10.6928C15.4079 10.4075 15.1784 10.1764 14.8953 10.1764H13.3584V9.14416H14.8953Z" fill="#333333"/>
<path d="M18.927 9.14416C19.2102 9.14416 19.4397 8.91302 19.4397 8.62777C19.4397 8.34252 19.2102 8.11139 18.927 8.11139H16.8774C16.5943 8.11139 16.3647 8.34252 16.3647 8.62777V12.7577C16.3647 13.0429 16.5943 13.2741 16.8774 13.2741H18.927C19.2102 13.2741 19.4397 13.0429 19.4397 12.7577C19.4397 12.4724 19.2102 12.2413 18.927 12.2413H17.3901V11.2091H18.927C19.2102 11.2091 19.4397 10.978 19.4397 10.6928C19.4397 10.4075 19.2102 10.1764 18.927 10.1764H17.3901V9.14416H18.927Z" fill="#333333"/>
<path d="M6.89818 9.14416C7.18133 9.14416 7.41088 8.91302 7.41088 8.62777C7.41088 8.34252 7.18133 8.11139 6.89818 8.11139H4.84863C4.56549 8.11139 4.33594 8.34252 4.33594 8.62777V12.7577C4.33594 13.0429 4.56549 13.2741 4.84863 13.2741C5.13178 13.2741 5.36133 13.0429 5.36133 12.7577V11.2091H6.89818C7.18133 11.2091 7.41088 10.978 7.41088 10.6928C7.41088 10.4075 7.18133 10.1764 6.89818 10.1764H5.36133V9.14416H6.89818Z" fill="#333333"/>
<path d="M11.3757 10.6928V8.62783C11.3757 8.34258 11.1462 8.11145 10.863 8.11145H8.81348C8.53033 8.11145 8.30078 8.34258 8.30078 8.62783V12.7577C8.30078 13.043 8.53033 13.2741 8.81348 13.2741C9.09662 13.2741 9.32617 13.043 9.32617 12.7577V11.3673L10.4365 13.0442C10.5352 13.1935 10.6978 13.2742 10.8635 13.2742C10.9613 13.2742 11.06 13.2461 11.1475 13.1874C11.383 13.0291 11.4467 12.7085 11.2896 12.4712L10.454 11.2092H10.863C11.1462 11.2092 11.3757 10.978 11.3757 10.6928ZM10.3503 10.1764H9.32617V9.14422H10.3503V10.1764Z" fill="#333333"/>
</svg>
